<svg width="35" height="35" viewBox="0 0 35 35" fill="none" xmlns="http://www.w3.org/2000/svg">
<g clip-path="url(#clip0_2701_35)">
<path fill-rule="evenodd" clip-rule="evenodd" d="M16.8985 32.4775L17.6286 31.0682L18.3586 32.4775C18.1329 32.5941 17.8826 32.6549 17.6286 32.6549C17.3746 32.6549 17.1242 32.5941 16.8985 32.4775ZM16.8985 32.4775L17.6286 31.0682L18.3586 32.4775L18.3629 32.4754L18.3756 32.4691L18.4136 32.4479C18.6351 32.3331 18.8538 32.2131 19.0696 32.0882C21.6478 30.62 24.0803 28.9095 26.3341 26.98C30.2319 23.6218 34.5572 18.5834 34.5572 12.5526C34.5572 6.91538 30.143 3.03027 25.5639 3.03027C22.2903 3.03027 19.4209 4.72736 17.6286 7.30474C15.8363 4.72736 12.9669 3.03027 9.69332 3.03027C5.11414 3.03027 0.700012 6.91538 0.700012 12.5526C0.700012 18.5834 5.02738 23.6218 8.92095 26.98C11.3665 29.0706 14.0214 30.903 16.8435 32.4479L16.8816 32.4691L16.8943 32.4754H16.8985V32.4775Z" fill="#CC2424"/>
</g>
<defs>
<clipPath id="clip0_2701_35">
<rect width="33.8571" height="33.8571" fill="white" transform="translate(0.700012 0.914062)"/>
</clipPath>
</defs>
</svg>
